{
  "accessors": [
    {
      "bufferView": 1,
      "componentType": 5126,
      "count": 65532,
      "max": [
        0.061427000910043716,
        0.18511199951171875,
        0.0067125000059604645
      ],
      "min": [
        -0.090851001441478729,
        0.05274369940161705,
        -0.050414301455020905
      ],
      "type": "VEC3"
    },
    {
      "bufferView": 1,
      "byteOffset": 786384,
      "componentType": 5126,
      "count": 65532,
      "max": [
        0.99989718198776245,
        1,
        0.99983656406402588
      ],
      "min": [
        -0.99959123134613037,
        -1,
        -0.99999511241912842
      ],
      "type": "VEC3"
    },
    {
      "bufferView": 0,
      "componentType": 5125,
      "count": 355158,
      "max": [
        65531
      ],
      "min": [
        0
      ],
      "type": "SCALAR"
    },
    {
      "bufferView": 1,
      "byteOffset": 1572768,
      "componentType": 5126,
      "count": 65532,
      "max": [
        0.066755197942256927,
        0.19472399353981018,
        0.0074125002138316631
      ],
      "min": [
        -0.090773500502109528,
        0.052872098982334137,
        -0.03528749942779541
      ],
      "type": "VEC3"
    },
    {
      "bufferView": 1,
      "byteOffset": 2359152,
      "componentType": 5126,
      "count": 65532,
      "max": [
        0.9993823766708374,
        1,
        0.99173694849014282
      ],
      "min": [
        -0.99984568357467651,
        -1,
        -0.99997162818908691
      ],
      "type": "VEC3"
    },
    {
      "bufferView": 0,
      "byteOffset": 1420632,
      "componentType": 5125,
      "count": 314733,
      "max": [
        65531
      ],
      "min": [
        0
      ],
      "type": "SCALAR"
    },
    {
      "bufferView": 1,
      "byteOffset": 3145536,
      "componentType": 5126,
      "count": 65532,
      "max": [
        0.077177003026008606,
        0.19711300730705261,
        0.018121300265192986
      ],
      "min": [
        -0.10481800138950348,
        0.052759300917387009,
        -0.02863750047981739
      ],
      "type": "VEC3"
    },
    {
      "bufferView": 1,
      "byteOffset": 3931920,
      "componentType": 5126,
      "count": 65532,
      "max": [
        0.99990987777709961,
        1,
        1
      ],
      "min": [
        -0.99979579448699951,
        -1,
        -0.99998766183853149
      ],
      "type": "VEC3"
    },
    {
      "bufferView": 0,
      "byteOffset": 2679564,
      "componentType": 5125,
      "count": 307908,
      "max": [
        65531
      ],
      "min": [
        0
      ],
      "type": "SCALAR"
    },
    {
      "bufferView": 1,
      "byteOffset": 4718304,
      "componentType": 5126,
      "count": 65534,
      "max": [
        0.093626998364925385,
        0.19717299938201904,
        0.010374300181865692
      ],
      "min": [
        -0.099905796349048615,
        0.052729498594999313,
        -0.023737499490380287
      ],
      "type": "VEC3"
    },
    {
      "bufferView": 1,
      "byteOffset": 5504712,
      "componentType": 5126,
      "count": 65534,
      "max": [
        0.99998092651367188,
        1,
        0.99998831748962402
      ],
      "min": [
        -1,
        -1,
        -1
      ],
      "type": "VEC3"
    },
    {
      "bufferView": 0,
      "byteOffset": 3911196,
      "componentType": 5125,
      "count": 300336,
      "max": [
        65533
      ],
      "min": [
        0
      ],
      "type": "SCALAR"
    },
    {
      "bufferView": 1,
      "byteOffset": 6291120,
      "componentType": 5126,
      "count": 65532,
      "max": [
        0.096566200256347656,
        0.18607500195503235,
        0.022112499922513962
      ],
      "min": [
        -0.10453899949789047,
        0.052748501300811768,
        -0.016699099913239479
      ],
      "type": "VEC3"
    },
    {
      "bufferView": 1,
      "byteOffset": 7077504,
      "componentType": 5126,
      "count": 65532,
      "max": [
        0.99998092651367188,
        1,
        0.99998635053634644
      ],
      "min": [
        -0.99990385770797729,
        -1,
        -0.99995601177215576
      ],
      "type": "VEC3"
    },
    {
      "bufferView": 0,
      "byteOffset": 5112540,
      "componentType": 5125,
      "count": 296685,
      "max": [
        65531
      ],
      "min": [
        0
      ],
      "type": "SCALAR"
    },
    {
      "bufferView": 1,
      "byteOffset": 7863888,
      "componentType": 5126,
      "count": 65532,
      "max": [
        0.096246600151062012,
        0.18594899773597717,
        0.023334799334406853
      ],
      "min": [
        -0.10272300243377686,
        0.052777398377656937,
        -0.011137500405311584
      ],
      "type": "VEC3"
    },
    {
      "bufferView": 1,
      "byteOffset": 8650272,
      "componentType": 5126,
      "count": 65532,
      "max": [
        0.99998098611831665,
        1,
        0.99998581409454346
      ],
      "min": [
        -0.9999382495880127,
        -1,
        -0.99996978044509888
      ],
      "type": "VEC3"
    },
    {
      "bufferView": 0,
      "byteOffset": 6299280,
      "componentType": 5125,
      "count": 292530,
      "max": [
        65531
      ],
      "min": [
        0
      ],
      "type": "SCALAR"
    },
    {
      "bufferView": 1,
      "byteOffset": 9436656,
      "componentType": 5126,
      "count": 65532,
      "max": [
        0.084177002310752869,
        0.18537500500679016,
        0.026312500238418579
      ],
      "min": [
        -0.10832399874925613,
        0.052810501307249069,
        -0.0052165500819683075
      ],
      "type": "VEC3"
    },
    {
      "bufferView": 1,
      "byteOffset": 10223040,
      "componentType": 5126,
      "count": 65532,
      "max": [
        0.99998098611831665,
        1,
        0.99999630451202393
      ],
      "min": [
        -1,
        -1,
        -0.99983745813369751
      ],
      "type": "VEC3"
    },
    {
      "bufferView": 0,
      "byteOffset": 7469400,
      "componentType": 5125,
      "count": 291792,
      "max": [
        65531
      ],
      "min": [
        0
      ],
      "type": "SCALAR"
    },
    {
      "bufferView": 1,
      "byteOffset": 11009424,
      "componentType": 5126,
      "count": 65532,
      "max": [
        0.084171600639820099,
        0.18059700727462769,
        0.035982601344585419
      ],
      "min": [
        -0.10828699916601181,
        0.052885200828313828,
        0.0030938999261707067
      ],
      "type": "VEC3"
    },
    {
      "bufferView": 1,
      "byteOffset": 11795808,
      "componentType": 5126,
      "count": 65532,
      "max": [
        0.99997895956039429,
        1,
        0.99999529123306274
      ],
      "min": [
        -1,
        -1,
        -0.99996918439865112
      ],
      "type": "VEC3"
    },
    {
      "bufferView": 0,
      "byteOffset": 8636568,
      "componentType": 5125,
      "count": 308355,
      "max": [
        65531
      ],
      "min": [
        0
      ],
      "type": "SCALAR"
    },
    {
      "bufferView": 1,
      "byteOffset": 12582192,
      "componentType": 5126,
      "count": 29910,
      "max": [
        0.081361398100852966,
        0.17532800137996674,
        0.041207499802112579
      ],
      "min": [
        -0.098643496632575989,
        0.053064901381731033,
        0.015812499448657036
      ],
      "type": "VEC3"
    },
    {
      "bufferView": 1,
      "byteOffset": 12941112,
      "componentType": 5126,
      "count": 29910,
      "max": [
        0.99991881847381592,
        1,
        0.9999886155128479
      ],
      "min": [
        -0.99998664855957031,
        -0.99993455410003662,
        -0.99726742506027222
      ],
      "type": "VEC3"
    },
    {
      "bufferView": 0,
      "byteOffset": 9869988,
      "componentType": 5125,
      "count": 146421,
      "max": [
        29909
      ],
      "min": [
        0
      ],
      "type": "SCALAR"
    }
  ],
  "asset": {
    "extras": {
      "author": "3D graphics 101 (https://sketchfab.com/3dgraphics)",
      "license": "CC-BY-NC-4.0 (http://creativecommons.org/licenses/by-nc/4.0/)",
      "source": "https://sketchfab.com/models/b602a35846e74533b1d9f06034a3b730",
      "title": "Stanford Dragon (Vrip)"
    },
    "generator": "Sketchfab-3.29.3",
    "version": "2.0"
  },
  "bufferViews": [
    {
      "buffer": 0,
      "byteLength": 10455672,
      "byteOffset": 0,
      "name": "floatBufferViews",
      "target": 34963
    },
    {
      "buffer": 0,
      "byteLength": 13300032,
      "byteOffset": 10455672,
      "byteStride": 12,
      "name": "floatBufferViews",
      "target": 34962
    }
  ],
  "buffers": [
    {
      "byteLength": 23755704,
      "uri": "scene.bin"
    }
  ],
  "materials": [
    {
      "doubleSided": true,
      "emissiveFactor": [
        0,
        0,
        0
      ],
      "name": "Scene_-_Root",
      "pbrMetallicRoughness": {
        "baseColorFactor": [
          0.5,
          0.5,
          0.5,
          1
        ],
        "metallicFactor": 0,
        "roughnessFactor": 0.59999999999999998
      }
    }
  ],
  "meshes": [
    {
      "primitives": [
        {
          "attributes": {
            "NORMAL": 1,
            "POSITION": 0
          },
          "indices": 2,
          "material": 0,
          "mode": 4
        }
      ]
    },
    {
      "primitives": [
        {
          "attributes": {
            "NORMAL": 4,
            "POSITION": 3
          },
          "indices": 5,
          "material": 0,
          "mode": 4
        }
      ]
    },
    {
      "primitives": [
        {
          "attributes": {
            "NORMAL": 7,
            "POSITION": 6
          },
          "indices": 8,
          "material": 0,
          "mode": 4
        }
      ]
    },
    {
      "primitives": [
        {
          "attributes": {
            "NORMAL": 10,
            "POSITION": 9
          },
          "indices": 11,
          "material": 0,
          "mode": 4
        }
      ]
    },
    {
      "primitives": [
        {
          "attributes": {
            "NORMAL": 13,
            "POSITION": 12
          },
          "indices": 14,
          "material": 0,
          "mode": 4
        }
      ]
    },
    {
      "primitives": [
        {
          "attributes": {
            "NORMAL": 16,
            "POSITION": 15
          },
          "indices": 17,
          "material": 0,
          "mode": 4
        }
      ]
    },
    {
      "primitives": [
        {
          "attributes": {
            "NORMAL": 19,
            "POSITION": 18
          },
          "indices": 20,
          "material": 0,
          "mode": 4
        }
      ]
    },
    {
      "primitives": [
        {
          "attributes": {
            "NORMAL": 22,
            "POSITION": 21
          },
          "indices": 23,
          "material": 0,
          "mode": 4
        }
      ]
    },
    {
      "primitives": [
        {
          "attributes": {
            "NORMAL": 25,
            "POSITION": 24
          },
          "indices": 26,
          "material": 0,
          "mode": 4
        }
      ]
    }
  ],
  "nodes": [
    {
      "children": [
        1
      ],
      "name": "RootNode (gltf orientation matrix)",
      "rotation": [
        -0.70710678118654746,
        -0,
        -0,
        0.70710678118654757
      ]
    },
    {
      "children": [
        2
      ],
      "matrix": [
        1,
        0,
        0,
        0,
        0,
        0,
        1,
        0,
        0,
        -1,
        0,
        0,
        0,
        0,
        0,
        1
      ],
      "name": "RootNode (model correction matrix)"
    },
    {
      "children": [
        3,
        4,
        5,
        6,
        7,
        8,
        9,
        10,
        11
      ],
      "name": "Geode"
    },
    {
      "mesh": 0,
      "name": ""
    },
    {
      "mesh": 1,
      "name": ""
    },
    {
      "mesh": 2,
      "name": ""
    },
    {
      "mesh": 3,
      "name": ""
    },
    {
      "mesh": 4,
      "name": ""
    },
    {
      "mesh": 5,
      "name": ""
    },
    {
      "mesh": 6,
      "name": ""
    },
    {
      "mesh": 7,
      "name": ""
    },
    {
      "mesh": 8,
      "name": ""
    }
  ],
  "scene": 0,
  "scenes": [
    {
      "name": "OSG_Scene",
      "nodes": [
        0
      ]
    }
  ]
}

