{
  "accessors": [
    {
      "bufferView": 2,
      "componentType": 5126,
      "count": 4915,
      "max": [
        0.82074499130249023,
        0.83727198839187622,
        2.1778249740600586
      ],
      "min": [
        -1.0477479696273804,
        -0.91210097074508667,
        0.70994699001312256
      ],
      "type": "VEC3"
    },
    {
      "bufferView": 2,
      "byteOffset": 58980,
      "componentType": 5126,
      "count": 4915,
      "max": [
        0.99961978197097778,
        0.99999427795410156,
        0.99960213899612427
      ],
      "min": [
        -0.99991357326507568,
        -0.99995017051696777,
        -0.99947875738143921
      ],
      "type": "VEC3"
    },
    {
      "bufferView": 3,
      "componentType": 5126,
      "count": 4915,
      "max": [
        0.99989920854568481,
        0.99999487400054932,
        0.9999622106552124,
        1
      ],
      "min": [
        -0.99990153312683105,
        -0.99986380338668823,
        -0.99982362985610962,
        -1
      ],
      "type": "VEC4"
    },
    {
      "bufferView": 1,
      "componentType": 5126,
      "count": 4915,
      "max": [
        0.99880498647689819,
        0.99911898374557495
      ],
      "min": [
        0.0011559999547898769,
        0.0011990000493824482
      ],
      "type": "VEC2"
    },
    {
      "bufferView": 0,
      "componentType": 5125,
      "count": 25464,
      "max": [
        4914
      ],
      "min": [
        0
      ],
      "type": "SCALAR"
    },
    {
      "bufferView": 2,
      "byteOffset": 117960,
      "componentType": 5126,
      "count": 2122,
      "max": [
        0.81913602352142334,
        1.1838090419769287,
        1.6309900283813477
      ],
      "min": [
        -0.25529998540878296,
        -0.70378601551055908,
        0.34259399771690369
      ],
      "type": "VEC3"
    },
    {
      "bufferView": 2,
      "byteOffset": 143424,
      "componentType": 5126,
      "count": 2122,
      "max": [
        0.99999892711639404,
        0.99492645263671875,
        0.99911350011825562
      ],
      "min": [
        -0.99975794553756714,
        -0.99560225009918213,
        -0.99911993741989136
      ],
      "type": "VEC3"
    },
    {
      "bufferView": 3,
      "byteOffset": 78640,
      "componentType": 5126,
      "count": 2122,
      "max": [
        0.99964207410812378,
        0.99999946355819702,
        0.99916499853134155,
        1
      ],
      "min": [
        -0.99938946962356567,
        -0.99999958276748657,
        -0.99995386600494385,
        -1
      ],
      "type": "VEC4"
    },
    {
      "bufferView": 1,
      "byteOffset": 39320,
      "componentType": 5126,
      "count": 2122,
      "max": [
        0.91603899002075195,
        0.99884897470474243
      ],
      "min": [
        0.0010629999451339245,
        0.0010849999962374568
      ],
      "type": "VEC2"
    },
    {
      "bufferView": 0,
      "byteOffset": 101856,
      "componentType": 5125,
      "count": 9468,
      "max": [
        2121
      ],
      "min": [
        0
      ],
      "type": "SCALAR"
    },
    {
      "bufferView": 2,
      "byteOffset": 168888,
      "componentType": 5126,
      "count": 1355,
      "max": [
        0.8293989896774292,
        1.2399159669876099,
        0.87301701307296753
      ],
      "min": [
        -0.781669020652771,
        -1.3315750360488892,
        0.27094700932502747
      ],
      "type": "VEC3"
    },
    {
      "bufferView": 2,
      "byteOffset": 185148,
      "componentType": 5126,
      "count": 1355,
      "max": [
        0.99751877784729004,
        1,
        0.99751877784729004
      ],
      "min": [
        -0.99751877784729004,
        -1,
        -0.99751877784729004
      ],
      "type": "VEC3"
    },
    {
      "bufferView": 3,
      "byteOffset": 112592,
      "componentType": 5126,
      "count": 1355,
      "max": [
        0.9999966025352478,
        0.7208130955696106,
        0.99961966276168823,
        1
      ],
      "min": [
        -0.99999761581420898,
        -0.72081005573272705,
        -0.99952864646911621,
        1
      ],
      "type": "VEC4"
    },
    {
      "bufferView": 1,
      "byteOffset": 56296,
      "componentType": 5126,
      "count": 1355,
      "max": [
        0.83294498920440674,
        0.7929760217666626
      ],
      "min": [
        0.0011510000331327319,
        0.0011180000146850944
      ],
      "type": "VEC2"
    },
    {
      "bufferView": 0,
      "byteOffset": 139728,
      "componentType": 5125,
      "count": 7056,
      "max": [
        1354
      ],
      "min": [
        0
      ],
      "type": "SCALAR"
    },
    {
      "bufferView": 2,
      "byteOffset": 201408,
      "componentType": 5126,
      "count": 1350,
      "max": [
        0.35566899180412292,
        1.0983819961547852,
        0.79088401794433594
      ],
      "min": [
        -0.61166000366210938,
        -0.97619599103927612,
        0.31056299805641174
      ],
      "type": "VEC3"
    },
    {
      "bufferView": 2,
      "byteOffset": 217608,
      "componentType": 5126,
      "count": 1350,
      "max": [
        0.99751877784729004,
        1,
        0.99751877784729004
      ],
      "min": [
        -0.99751877784729004,
        -1,
        -0.99751877784729004
      ],
      "type": "VEC3"
    },
    {
      "bufferView": 3,
      "byteOffset": 134272,
      "componentType": 5126,
      "count": 1350,
      "max": [
        0.99792927503585815,
        0.7208130955696106,
        0.99806070327758789,
        1
      ],
      "min": [
        -0.99903494119644165,
        -0.72081011533737183,
        -0.99952870607376099,
        1
      ],
      "type": "VEC4"
    },
    {
      "bufferView": 1,
      "byteOffset": 67136,
      "componentType": 5126,
      "count": 1350,
      "max": [
        0.83294498920440674,
        0.7929760217666626
      ],
      "min": [
        0.0011510000331327319,
        0.0011449999874457717
      ],
      "type": "VEC2"
    },
    {
      "bufferView": 0,
      "byteOffset": 167952,
      "componentType": 5125,
      "count": 7200,
      "max": [
        1349
      ],
      "min": [
        0
      ],
      "type": "SCALAR"
    },
    {
      "bufferView": 2,
      "byteOffset": 233808,
      "componentType": 5126,
      "count": 2104,
      "max": [
        0.93502098321914673,
        0.9494510293006897,
        2.1770470142364502
      ],
      "min": [
        -0.93459701538085938,
        -0.87567102909088135,
        -0.0071490001864731312
      ],
      "type": "VEC3"
    },
    {
      "bufferView": 2,
      "byteOffset": 259056,
      "componentType": 5126,
      "count": 2104,
      "max": [
        0.99999511241912842,
        1,
        0.99937307834625244
      ],
      "min": [
        -0.99526309967041016,
        -1,
        -0.99869871139526367
      ],
      "type": "VEC3"
    },
    {
      "bufferView": 3,
      "byteOffset": 155872,
      "componentType": 5126,
      "count": 2104,
      "max": [
        0.99998527765274048,
        0.999744713306427,
        0.99999129772186279,
        1
      ],
      "min": [
        -0.99999719858169556,
        -0.99949026107788086,
        -0.99985373020172119,
        -1
      ],
      "type": "VEC4"
    },
    {
      "bufferView": 1,
      "byteOffset": 77936,
      "componentType": 5126,
      "count": 2104,
      "max": [
        0.99885302782058716,
        0.99885100126266479
      ],
      "min": [
        0.001142999972216785,
        0.0010639999527484179
      ],
      "type": "VEC2"
    },
    {
      "bufferView": 0,
      "byteOffset": 196752,
      "componentType": 5125,
      "count": 9744,
      "max": [
        2103
      ],
      "min": [
        0
      ],
      "type": "SCALAR"
    },
    {
      "bufferView": 2,
      "byteOffset": 284304,
      "componentType": 5126,
      "count": 196,
      "max": [
        0.86487400531768799,
        1.0130579471588135,
        0.28837698698043823
      ],
      "min": [
        -0.86487400531768799,
        -1.0130579471588135,
        0.125
      ],
      "type": "VEC3"
    },
    {
      "bufferView": 2,
      "byteOffset": 286656,
      "componentType": 5126,
      "count": 196,
      "max": [
        1,
        1,
        1
      ],
      "min": [
        -1,
        -1,
        -1
      ],
      "type": "VEC3"
    },
    {
      "bufferView": 3,
      "byteOffset": 189536,
      "componentType": 5126,
      "count": 196,
      "max": [
        0.9869682788848877,
        0.99312639236450195,
        0.99074339866638184,
        1
      ],
      "min": [
        -0.9869682788848877,
        -0.99685859680175781,
        -0.6141400933265686,
        -1
      ],
      "type": "VEC4"
    },
    {
      "bufferView": 1,
      "byteOffset": 94768,
      "componentType": 5126,
      "count": 196,
      "max": [
        0.30878299474716187,
        0.52220398187637329
      ],
      "min": [
        0.19368499517440796,
        0.40154600143432617
      ],
      "type": "VEC2"
    },
    {
      "bufferView": 0,
      "byteOffset": 235728,
      "componentType": 5125,
      "count": 960,
      "max": [
        195
      ],
      "min": [
        0
      ],
      "type": "SCALAR"
    },
    {
      "bufferView": 2,
      "byteOffset": 289008,
      "componentType": 5126,
      "count": 3316,
      "max": [
        0.94278901815414429,
        1.0168060064315796,
        0.33605301380157471
      ],
      "min": [
        -0.94278901815414429,
        -1.0168060064315796,
        -0.020805999636650085
      ],
      "type": "VEC3"
    },
    {
      "bufferView": 2,
      "byteOffset": 328800,
      "componentType": 5126,
      "count": 3316,
      "max": [
        1,
        1,
        0.9495893120765686
      ],
      "min": [
        -1,
        -1,
        -0.99144750833511353
      ],
      "type": "VEC3"
    },
    {
      "bufferView": 3,
      "byteOffset": 192672,
      "componentType": 5126,
      "count": 3316,
      "max": [
        1,
        1,
        1,
        1
      ],
      "min": [
        -1,
        -1,
        -1,
        -1
      ],
      "type": "VEC4"
    },
    {
      "bufferView": 1,
      "byteOffset": 96336,
      "componentType": 5126,
      "count": 3316,
      "max": [
        0.99876302480697632,
        0.99876302480697632
      ],
      "min": [
        0.001142999972216785,
        0.0012369999894872308
      ],
      "type": "VEC2"
    },
    {
      "bufferView": 0,
      "byteOffset": 239568,
      "componentType": 5125,
      "count": 12168,
      "max": [
        3315
      ],
      "min": [
        0
      ],
      "type": "SCALAR"
    }
  ],
  "asset": {
    "extras": {
      "author": "toomanydemons (https://sketchfab.com/toomanydemons)",
      "license": "CC-BY-4.0 (http://creativecommons.org/licenses/by/4.0/)",
      "source": "https://sketchfab.com/models/22e55de3be0c46caad827774109572f5",
      "title": "ARC Pulse Core"
    },
    "generator": "Sketchfab-3.37.3",
    "version": "2.0"
  },
  "bufferViews": [
    {
      "buffer": 0,
      "byteLength": 288240,
      "byteOffset": 0,
      "name": "floatBufferViews",
      "target": 34963
    },
    {
      "buffer": 0,
      "byteLength": 122864,
      "byteOffset": 288240,
      "byteStride": 8,
      "name": "floatBufferViews",
      "target": 34962
    },
    {
      "buffer": 0,
      "byteLength": 368592,
      "byteOffset": 411104,
      "byteStride": 12,
      "name": "floatBufferViews",
      "target": 34962
    },
    {
      "buffer": 0,
      "byteLength": 245728,
      "byteOffset": 779696,
      "byteStride": 16,
      "name": "floatBufferViews",
      "target": 34962
    }
  ],
  "buffers": [
    {
      "byteLength": 1025424,
      "uri": "scene.bin"
    }
  ],
  "images": [
    {
      "uri": "textures/MAT_Pallets_normal.png"
    },
    {
      "uri": "textures/MAT_Pallets_metallicRoughness.png"
    },
    {
      "uri": "textures/MAT_Pallets_baseColor.png"
    },
    {
      "uri": "textures/MAT_PalletStack_01_metallicRoughness.png"
    },
    {
      "uri": "textures/MAT_PalletStack_01_baseColor.png"
    },
    {
      "uri": "textures/MAT_PalletStack_01_normal.png"
    },
    {
      "uri": "textures/MAT_PalletStack_01_emissive.png"
    },
    {
      "uri": "textures/MAT_PulseFilter_normal.png"
    },
    {
      "uri": "textures/MAT_PulseFilter_metallicRoughness.png"
    },
    {
      "uri": "textures/MAT_PulseFilter_baseColor.png"
    }
  ],
  "materials": [
    {
      "doubleSided": true,
      "emissiveFactor": [
        1,
        1,
        1
      ],
      "emissiveTexture": {
        "index": 6,
        "texCoord": 0
      },
      "name": "MAT_PalletStack_01",
      "normalTexture": {
        "index": 5,
        "scale": 1,
        "texCoord": 0
      },
      "occlusionTexture": {
        "index": 3,
        "strength": 1,
        "texCoord": 0
      },
      "pbrMetallicRoughness": {
        "baseColorFactor": [
          1,
          1,
          1,
          1
        ],
        "baseColorTexture": {
          "index": 4,
          "texCoord": 0
        },
        "metallicFactor": 1,
        "metallicRoughnessTexture": {
          "index": 3,
          "texCoord": 0
        },
        "roughnessFactor": 1
      }
    },
    {
      "doubleSided": false,
      "name": "MAT_Pallets",
      "normalTexture": {
        "index": 0,
        "scale": 1,
        "texCoord": 0
      },
      "occlusionTexture": {
        "index": 1,
        "strength": 1,
        "texCoord": 0
      },
      "pbrMetallicRoughness": {
        "baseColorFactor": [
          1,
          1,
          1,
          1
        ],
        "baseColorTexture": {
          "index": 2,
          "texCoord": 0
        },
        "metallicFactor": 1,
        "metallicRoughnessTexture": {
          "index": 1,
          "texCoord": 0
        },
        "roughnessFactor": 1
      }
    },
    {
      "doubleSided": false,
      "name": "MAT_PulseFilter",
      "normalTexture": {
        "index": 7,
        "scale": 1,
        "texCoord": 0
      },
      "occlusionTexture": {
        "index": 8,
        "strength": 1,
        "texCoord": 0
      },
      "pbrMetallicRoughness": {
        "baseColorFactor": [
          1,
          1,
          1,
          1
        ],
        "baseColorTexture": {
          "index": 9,
          "texCoord": 0
        },
        "metallicFactor": 1,
        "metallicRoughnessTexture": {
          "index": 8,
          "texCoord": 0
        },
        "roughnessFactor": 1
      }
    }
  ],
  "meshes": [
    {
      "primitives": [
        {
          "attributes": {
            "NORMAL": 1,
            "POSITION": 0,
            "TANGENT": 2,
            "TEXCOORD_0": 3
          },
          "indices": 4,
          "material": 2,
          "mode": 4
        }
      ]
    },
    {
      "primitives": [
        {
          "attributes": {
            "NORMAL": 6,
            "POSITION": 5,
            "TANGENT": 7,
            "TEXCOORD_0": 8
          },
          "indices": 9,
          "material": 0,
          "mode": 4
        }
      ]
    },
    {
      "primitives": [
        {
          "attributes": {
            "NORMAL": 11,
            "POSITION": 10,
            "TANGENT": 12,
            "TEXCOORD_0": 13
          },
          "indices": 14,
          "material": 0,
          "mode": 4
        }
      ]
    },
    {
      "primitives": [
        {
          "attributes": {
            "NORMAL": 16,
            "POSITION": 15,
            "TANGENT": 17,
            "TEXCOORD_0": 18
          },
          "indices": 19,
          "material": 0,
          "mode": 4
        }
      ]
    },
    {
      "primitives": [
        {
          "attributes": {
            "NORMAL": 21,
            "POSITION": 20,
            "TANGENT": 22,
            "TEXCOORD_0": 23
          },
          "indices": 24,
          "material": 0,
          "mode": 4
        }
      ]
    },
    {
      "primitives": [
        {
          "attributes": {
            "NORMAL": 26,
            "POSITION": 25,
            "TANGENT": 27,
            "TEXCOORD_0": 28
          },
          "indices": 29,
          "material": 1,
          "mode": 4
        }
      ]
    },
    {
      "primitives": [
        {
          "attributes": {
            "NORMAL": 31,
            "POSITION": 30,
            "TANGENT": 32,
            "TEXCOORD_0": 33
          },
          "indices": 34,
          "material": 1,
          "mode": 4
        }
      ]
    }
  ],
  "nodes": [
    {
      "children": [
        1
      ],
      "name": "RootNode (gltf orientation matrix)",
      "rotation": [
        -0.70710678118654746,
        -0,
        -0,
        0.70710678118654757
      ]
    },
    {
      "children": [
        2
      ],
      "name": "RootNode (model correction matrix)"
    },
    {
      "children": [
        3,
        4,
        5,
        6,
        7,
        8,
        9
      ],
      "name": "PalletStack01_Paint.obj.cleaner.materialmerger.gles"
    },
    {
      "mesh": 0,
      "name": ""
    },
    {
      "mesh": 1,
      "name": ""
    },
    {
      "mesh": 2,
      "name": ""
    },
    {
      "mesh": 3,
      "name": ""
    },
    {
      "mesh": 4,
      "name": ""
    },
    {
      "mesh": 5,
      "name": ""
    },
    {
      "mesh": 6,
      "name": ""
    }
  ],
  "samplers": [
    {
      "magFilter": 9729,
      "minFilter": 9987,
      "wrapS": 10497,
      "wrapT": 10497
    }
  ],
  "scene": 0,
  "scenes": [
    {
      "name": "OSG_Scene",
      "nodes": [
        0
      ]
    }
  ],
  "textures": [
    {
      "sampler": 0,
      "source": 0
    },
    {
      "sampler": 0,
      "source": 1
    },
    {
      "sampler": 0,
      "source": 2
    },
    {
      "sampler": 0,
      "source": 3
    },
    {
      "sampler": 0,
      "source": 4
    },
    {
      "sampler": 0,
      "source": 5
    },
    {
      "sampler": 0,
      "source": 6
    },
    {
      "sampler": 0,
      "source": 7
    },
    {
      "sampler": 0,
      "source": 8
    },
    {
      "sampler": 0,
      "source": 9
    }
  ]
}

