{
  "accessors": [
    {
      "bufferView": 2,
      "componentType": 5126,
      "count": 65532,
      "max": [
        11.846198081970215,
        12.054381370544434,
        21.917346954345703
      ],
      "min": [
        -16.825996398925781,
        -15.779033660888672,
        9.8157806396484375
      ],
      "type": "VEC3"
    },
    {
      "bufferView": 2,
      "byteOffset": 786384,
      "componentType": 5126,
      "count": 65532,
      "max": [
        0.99996888637542725,
        0.9998016357421875,
        0.99999934434890747
      ],
      "min": [
        -0.99999171495437622,
        -0.99999421834945679,
        -0.99998736381530762
      ],
      "type": "VEC3"
    },
    {
      "bufferView": 3,
      "componentType": 5126,
      "count": 65532,
      "max": [
        0.9995124340057373,
        0.9999883770942688,
        0.99999988079071045,
        1
      ],
      "min": [
        -0.99998998641967773,
        -0.99997127056121826,
        -0.99997222423553467,
        -1
      ],
      "type": "VEC4"
    },
    {
      "bufferView": 1,
      "componentType": 5126,
      "count": 65532,
      "max": [
        0.99445098638534546,
        0.99932098388671875
      ],
      "min": [
        0.00017100000695791095,
        0.0039349999278783798
      ],
      "type": "VEC2"
    },
    {
      "bufferView": 0,
      "componentType": 5125,
      "count": 339246,
      "max": [
        65531
      ],
      "min": [
        0
      ],
      "type": "SCALAR"
    },
    {
      "bufferView": 2,
      "byteOffset": 1572768,
      "componentType": 5126,
      "count": 65532,
      "max": [
        11.745914459228516,
        10.516790390014648,
        22.181991577148438
      ],
      "min": [
        -18.471759796142578,
        -5.9180731773376465,
        10.117350578308105
      ],
      "type": "VEC3"
    },
    {
      "bufferView": 2,
      "byteOffset": 2359152,
      "componentType": 5126,
      "count": 65532,
      "max": [
        0.99996888637542725,
        0.9997260570526123,
        0.99999934434890747
      ],
      "min": [
        -0.99999463558197021,
        -0.99999970197677612,
        -0.99995064735412598
      ],
      "type": "VEC3"
    },
    {
      "bufferView": 3,
      "byteOffset": 1048512,
      "componentType": 5126,
      "count": 65532,
      "max": [
        0.99976682662963867,
        0.99999970197677612,
        0.99999946355819702,
        1
      ],
      "min": [
        -0.99995297193527222,
        -0.99991130828857422,
        -0.99994289875030518,
        -1
      ],
      "type": "VEC4"
    },
    {
      "bufferView": 1,
      "byteOffset": 524256,
      "componentType": 5126,
      "count": 65532,
      "max": [
        0.99575299024581909,
        0.99966001510620117
      ],
      "min": [
        0.0033950000070035458,
        0.0070609999820590019
      ],
      "type": "VEC2"
    },
    {
      "bufferView": 0,
      "byteOffset": 1356984,
      "componentType": 5125,
      "count": 311244,
      "max": [
        65531
      ],
      "min": [
        0
      ],
      "type": "SCALAR"
    },
    {
      "bufferView": 2,
      "byteOffset": 3145536,
      "componentType": 5126,
      "count": 65532,
      "max": [
        13.136893272399902,
        6.1476178169250488,
        22.181991577148438
      ],
      "min": [
        -21.824733734130859,
        -14.57816219329834,
        9.7194128036499023
      ],
      "type": "VEC3"
    },
    {
      "bufferView": 2,
      "byteOffset": 3931920,
      "componentType": 5126,
      "count": 65532,
      "max": [
        0.99998480081558228,
        0.99990189075469971,
        0.99999833106994629
      ],
      "min": [
        -0.9999845027923584,
        -0.99999749660491943,
        -0.99826759099960327
      ],
      "type": "VEC3"
    },
    {
      "bufferView": 3,
      "byteOffset": 2097024,
      "componentType": 5126,
      "count": 65532,
      "max": [
        0.99999767541885376,
        0.99999970197677612,
        0.9999881386756897,
        1
      ],
      "min": [
        -0.99999940395355225,
        -0.99984729290008545,
        -0.99999845027923584,
        -1
      ],
      "type": "VEC4"
    },
    {
      "bufferView": 1,
      "byteOffset": 1048512,
      "componentType": 5126,
      "count": 65532,
      "max": [
        0.99344998598098755,
        0.99934399127960205
      ],
      "min": [
        0.0035840000491589308,
        0.025793999433517456
      ],
      "type": "VEC2"
    },
    {
      "bufferView": 0,
      "byteOffset": 2601960,
      "componentType": 5125,
      "count": 320433,
      "max": [
        65531
      ],
      "min": [
        0
      ],
      "type": "SCALAR"
    },
    {
      "bufferView": 2,
      "byteOffset": 4718304,
      "componentType": 5126,
      "count": 65532,
      "max": [
        13.254818916320801,
        1.0246750116348267,
        21.945333480834961
      ],
      "min": [
        -22.042892456054688,
        -18.103431701660156,
        9.7194128036499023
      ],
      "type": "VEC3"
    },
    {
      "bufferView": 2,
      "byteOffset": 5504688,
      "componentType": 5126,
      "count": 65532,
      "max": [
        0.99999541044235229,
        0.99999123811721802,
        0.99999946355819702
      ],
      "min": [
        -0.9999845027923584,
        -0.99988394975662231,
        -0.99998283386230469
      ],
      "type": "VEC3"
    },
    {
      "bufferView": 3,
      "byteOffset": 3145536,
      "componentType": 5126,
      "count": 65532,
      "max": [
        0.99997735023498535,
        0.99999737739562988,
        0.99998873472213745,
        1
      ],
      "min": [
        -0.99999833106994629,
        -0.99999397993087769,
        -0.999988853931427,
        -1
      ],
      "type": "VEC4"
    },
    {
      "bufferView": 1,
      "byteOffset": 1572768,
      "componentType": 5126,
      "count": 65532,
      "max": [
        0.99538099765777588,
        0.99967598915100098
      ],
      "min": [
        0.0038240000139921904,
        0.0039110002107918262
      ],
      "type": "VEC2"
    },
    {
      "bufferView": 0,
      "byteOffset": 3883692,
      "componentType": 5125,
      "count": 313611,
      "max": [
        65531
      ],
      "min": [
        0
      ],
      "type": "SCALAR"
    },
    {
      "bufferView": 2,
      "byteOffset": 6291072,
      "componentType": 5126,
      "count": 65533,
      "max": [
        13.046609878540039,
        -3.7717490196228027,
        24.107717514038086
      ],
      "min": [
        -21.520835876464844,
        -16.272951126098633,
        9.6831846237182617
      ],
      "type": "VEC3"
    },
    {
      "bufferView": 2,
      "byteOffset": 7077468,
      "componentType": 5126,
      "count": 65533,
      "max": [
        0.99999845027923584,
        0.99999338388442993,
        0.99999910593032837
      ],
      "min": [
        -0.99999195337295532,
        -0.99997848272323608,
        -0.99998223781585693
      ],
      "type": "VEC3"
    },
    {
      "bufferView": 3,
      "byteOffset": 4194048,
      "componentType": 5126,
      "count": 65533,
      "max": [
        0.99999982118606567,
        0.99999856948852539,
        0.99999731779098511,
        1
      ],
      "min": [
        -0.99999290704727173,
        -0.99990499019622803,
        -0.99998271465301514,
        -1
      ],
      "type": "VEC4"
    },
    {
      "bufferView": 1,
      "byteOffset": 2097024,
      "componentType": 5126,
      "count": 65533,
      "max": [
        0.99380499124526978,
        1.0001850128173828
      ],
      "min": [
        0.0038870000280439854,
        0.0196710005402565
      ],
      "type": "VEC2"
    },
    {
      "bufferView": 0,
      "byteOffset": 5138136,
      "componentType": 5125,
      "count": 305241,
      "max": [
        65532
      ],
      "min": [
        0
      ],
      "type": "SCALAR"
    },
    {
      "bufferView": 2,
      "byteOffset": 7863864,
      "componentType": 5126,
      "count": 60796,
      "max": [
        11.295821189880371,
        10.423467636108398,
        23.946540832519531
      ],
      "min": [
        -19.294223785400391,
        -18.236335754394531,
        9.9241981506347656
      ],
      "type": "VEC3"
    },
    {
      "bufferView": 2,
      "byteOffset": 8593416,
      "componentType": 5126,
      "count": 60796,
      "max": [
        0.99998748302459717,
        0.99999892711639404,
        0.99999910593032837
      ],
      "min": [
        -0.99998408555984497,
        -0.99870145320892334,
        -0.99998128414154053
      ],
      "type": "VEC3"
    },
    {
      "bufferView": 3,
      "byteOffset": 5242576,
      "componentType": 5126,
      "count": 60796,
      "max": [
        0.99996650218963623,
        0.99981671571731567,
        0.99996078014373779,
        1
      ],
      "min": [
        -0.99999445676803589,
        -0.99998879432678223,
        -0.99999862909317017,
        -1
      ],
      "type": "VEC4"
    },
    {
      "bufferView": 1,
      "byteOffset": 2621288,
      "componentType": 5126,
      "count": 60796,
      "max": [
        0.99315500259399414,
        0.99945700168609619
      ],
      "min": [
        0.004889999981969595,
        0.0039059999398887157
      ],
      "type": "VEC2"
    },
    {
      "bufferView": 0,
      "byteOffset": 6359100,
      "componentType": 5125,
      "count": 305955,
      "max": [
        60795
      ],
      "min": [
        0
      ],
      "type": "SCALAR"
    }
  ],
  "asset": {
    "extras": {
      "author": "Dr Hugo Anderson-Whymark (https://sketchfab.com/hugoandersonwhymark)",
      "license": "CC-BY-NC-4.0 (http://creativecommons.org/licenses/by-nc/4.0/)",
      "source": "https://sketchfab.com/models/e9fee2578f634ea1a9c710ac860844c0",
      "title": "Neolithic House, Skara Brae, Orkney"
    },
    "generator": "Sketchfab-3.41.2",
    "version": "2.0"
  },
  "bufferViews": [
    {
      "buffer": 0,
      "byteLength": 7582920,
      "byteOffset": 0,
      "name": "floatBufferViews",
      "target": 34963
    },
    {
      "buffer": 0,
      "byteLength": 3107656,
      "byteOffset": 7582920,
      "byteStride": 8,
      "name": "floatBufferViews",
      "target": 34962
    },
    {
      "buffer": 0,
      "byteLength": 9322968,
      "byteOffset": 10690576,
      "byteStride": 12,
      "name": "floatBufferViews",
      "target": 34962
    },
    {
      "buffer": 0,
      "byteLength": 6215312,
      "byteOffset": 20013544,
      "byteStride": 16,
      "name": "floatBufferViews",
      "target": 34962
    }
  ],
  "buffers": [
    {
      "byteLength": 26228856,
      "uri": "scene.bin"
    }
  ],
  "extensionsUsed": [
    "KHR_materials_unlit"
  ],
  "images": [
    {
      "uri": "textures/material_0_baseColor.jpeg"
    }
  ],
  "materials": [
    {
      "doubleSided": true,
      "emissiveFactor": [
        0,
        0,
        0
      ],
      "extensions": {
        "KHR_materials_unlit": {}
      },
      "name": "material_0",
      "pbrMetallicRoughness": {
        "baseColorFactor": [
          1,
          1,
          1,
          1
        ],
        "baseColorTexture": {
          "index": 0,
          "texCoord": 0
        },
        "metallicFactor": 0,
        "roughnessFactor": 1
      }
    }
  ],
  "meshes": [
    {
      "primitives": [
        {
          "attributes": {
            "NORMAL": 1,
            "POSITION": 0,
            "TANGENT": 2,
            "TEXCOORD_0": 3
          },
          "indices": 4,
          "material": 0,
          "mode": 4
        }
      ]
    },
    {
      "primitives": [
        {
          "attributes": {
            "NORMAL": 6,
            "POSITION": 5,
            "TANGENT": 7,
            "TEXCOORD_0": 8
          },
          "indices": 9,
          "material": 0,
          "mode": 4
        }
      ]
    },
    {
      "primitives": [
        {
          "attributes": {
            "NORMAL": 11,
            "POSITION": 10,
            "TANGENT": 12,
            "TEXCOORD_0": 13
          },
          "indices": 14,
          "material": 0,
          "mode": 4
        }
      ]
    },
    {
      "primitives": [
        {
          "attributes": {
            "NORMAL": 16,
            "POSITION": 15,
            "TANGENT": 17,
            "TEXCOORD_0": 18
          },
          "indices": 19,
          "material": 0,
          "mode": 4
        }
      ]
    },
    {
      "primitives": [
        {
          "attributes": {
            "NORMAL": 21,
            "POSITION": 20,
            "TANGENT": 22,
            "TEXCOORD_0": 23
          },
          "indices": 24,
          "material": 0,
          "mode": 4
        }
      ]
    },
    {
      "primitives": [
        {
          "attributes": {
            "NORMAL": 26,
            "POSITION": 25,
            "TANGENT": 27,
            "TEXCOORD_0": 28
          },
          "indices": 29,
          "material": 0,
          "mode": 4
        }
      ]
    }
  ],
  "nodes": [
    {
      "children": [
        1
      ],
      "name": "RootNode (gltf orientation matrix)",
      "rotation": [
        -0.70710678118654746,
        -0,
        -0,
        0.70710678118654757
      ]
    },
    {
      "children": [
        2
      ],
      "matrix": [
        0.99450653791427612,
        0.10401681065559387,
        -0.011717589572072029,
        0,
        -0.10374788194894791,
        0.99436897039413452,
        0.021603899076581001,
        0,
        0.013898776844143867,
        -0.020269542932510376,
        0.99969792366027832,
        0,
        -0.57466048002243042,
        0.7825998067855835,
        0.019327864050865173,
        1
      ],
      "name": "RootNode (model correction matrix)"
    },
    {
      "children": [
        3,
        4,
        5,
        6,
        7,
        8
      ],
      "name": "model.obj.cleaner"
    },
    {
      "mesh": 0,
      "name": ""
    },
    {
      "mesh": 1,
      "name": ""
    },
    {
      "mesh": 2,
      "name": ""
    },
    {
      "mesh": 3,
      "name": ""
    },
    {
      "mesh": 4,
      "name": ""
    },
    {
      "mesh": 5,
      "name": ""
    }
  ],
  "samplers": [
    {
      "magFilter": 9729,
      "minFilter": 9987,
      "wrapS": 10497,
      "wrapT": 10497
    }
  ],
  "scene": 0,
  "scenes": [
    {
      "name": "OSG_Scene",
      "nodes": [
        0
      ]
    }
  ],
  "textures": [
    {
      "sampler": 0,
      "source": 0
    }
  ]
}

